HIERARCHY
ROOT Hips
{
	OFFSET	0.00	0.00	0.00
	CHANNELS 6 Xposition Yposition Zposition Zrotation Xrotation Yrotation
	JOINT LeftUpperLeg
	{
		OFFSET	 0.082078	-0.067517	-0.015996
		CHANNELS 3 Zrotation Xrotation Yrotation
		JOINT LeftLowerLeg
		{
			OFFSET	-0.000000	-0.443705	 0.002846
			CHANNELS 3 Zrotation Xrotation Yrotation
			JOINT LeftFoot
			{
				OFFSET	 0.000000	-0.444279	-0.029822
				CHANNELS 3 Zrotation Xrotation Yrotation
				JOINT LeftToes
				{
					OFFSET	-0.000000	-0.087287	 0.107106
					CHANNELS 3 Zrotation Xrotation Yrotation
					End Site
					{
						OFFSET	-0.000000	-0.087287	 0.107106
					}
				}
			}
		}
	}
	JOINT RightUpperLeg
	{
		OFFSET	-0.082078	-0.067517	-0.015996
		CHANNELS 3 Zrotation Xrotation Yrotation
		JOINT RightLowerLeg
		{
			OFFSET	 0.000000	-0.443705	 0.002862
			CHANNELS 3 Zrotation Xrotation Yrotation
			JOINT RightFoot
			{
				OFFSET	 0.000000	-0.444277	-0.029838
				CHANNELS 3 Zrotation Xrotation Yrotation
				JOINT RightToes
				{
					OFFSET	-0.000000	-0.087287	 0.107106
					CHANNELS 3 Zrotation Xrotation Yrotation
					End Site
					{
						OFFSET	-0.000000	-0.087287	 0.107106
					}
				}
			}
		}
	}
	JOINT Spine
	{
		OFFSET	 0.000000	 0.101816	 0.001315
		CHANNELS 3 Zrotation Xrotation Yrotation
		JOINT Chest
		{
			OFFSET	 0.000000	 0.100835	-0.010008
			CHANNELS 3 Zrotation Xrotation Yrotation
			JOINT UpperChest
			{
				OFFSET	 0.000000	 0.091000	-0.013734
				CHANNELS 3 Zrotation Xrotation Yrotation
				JOINT LeftShoulder
				{
					OFFSET	 0.045704	 0.109460	-0.026280
					CHANNELS 3 Zrotation Xrotation Yrotation
					JOINT LeftUpperArm
					{
						OFFSET	 0.105924	-0.005246	-0.022321
						CHANNELS 3 Zrotation Xrotation Yrotation
						JOINT LeftLowerArm
						{
							OFFSET	 0.278415	-0.000001	 0.000000
							CHANNELS 3 Zrotation Xrotation Yrotation
							JOINT LeftHand
							{
								OFFSET	 0.283288	-0.000000	 0.000000
								CHANNELS 3 Zrotation Xrotation Yrotation
								JOINT LeftIndexProximal
								{
									OFFSET	 0.091093	-0.005171	 0.022601
									CHANNELS 3 Zrotation Xrotation Yrotation
									JOINT LeftIndexIntermediate
									{
										OFFSET	 0.036764	 0.000000	 0.000000
										CHANNELS 3 Zrotation Xrotation Yrotation
										JOINT LeftIndexDistal
										{
											OFFSET	 0.028831	 0.000000	-0.000000
											CHANNELS 3 Zrotation Xrotation Yrotation
											End Site
											{
												OFFSET	 0.028831	 0.000000	-0.000000
											}
										}
									}
								}
								JOINT LeftMiddleProximal
								{
									OFFSET	 0.095334	-0.000000	 0.000000
									CHANNELS 3 Zrotation Xrotation Yrotation
									JOINT LeftMiddleIntermediate
									{
										OFFSET	 0.036982	 0.000000	 0.000000
										CHANNELS 3 Zrotation Xrotation Yrotation
										JOINT LeftMiddleDistal
										{
											OFFSET	 0.029509	-0.000000	 0.000000
											CHANNELS 3 Zrotation Xrotation Yrotation
											End Site
											{
												OFFSET	 0.029509	-0.000000	 0.000000
											}
										}
									}
								}
								JOINT LeftLittleProximal
								{
									OFFSET	 0.080778	-0.004887	-0.038061
									CHANNELS 3 Zrotation Xrotation Yrotation
									JOINT LeftLittleIntermediate
									{
										OFFSET	 0.036000	 0.000000	-0.000000
										CHANNELS 3 Zrotation Xrotation Yrotation
										JOINT LeftLittleDistal
										{
											OFFSET	 0.021142	 0.000000	-0.000000
											CHANNELS 3 Zrotation Xrotation Yrotation
											End Site
											{
												OFFSET	 0.021142	 0.000000	-0.000000
											}
										}
									}
								}
								JOINT LeftRingProximal
								{
									OFFSET	 0.091045	-0.000439	-0.018651
									CHANNELS 3 Zrotation Xrotation Yrotation
									JOINT LeftRingIntermediate
									{
										OFFSET	 0.031540	-0.000000	 0.000000
										CHANNELS 3 Zrotation Xrotation Yrotation
										JOINT LeftRingDistal
										{
											OFFSET	 0.029377	-0.000000	-0.000000
											CHANNELS 3 Zrotation Xrotation Yrotation
											End Site
											{
												OFFSET	 0.029377	-0.000000	-0.000000
											}
										}
									}
								}
								JOINT LeftThumbProximal
								{
									OFFSET	 0.024661	-0.015750	 0.026824
									CHANNELS 3 Zrotation Xrotation Yrotation
									JOINT LeftThumbIntermediate
									{
										OFFSET	 0.032298	-0.018647	 0.018647
										CHANNELS 3 Zrotation Xrotation Yrotation
										JOINT LeftThumbDistal
										{
											OFFSET	 0.026526	-0.015315	 0.015315
											CHANNELS 3 Zrotation Xrotation Yrotation
											End Site
											{
												OFFSET	 0.026526	-0.015315	 0.015315
											}
										}
									}
								}
							}
						}
					}
				}
				JOINT Neck
				{
					OFFSET	 0.000000	 0.166717	-0.025162
					CHANNELS 3 Zrotation Xrotation Yrotation
					JOINT Head
					{
						OFFSET	-0.000000	 0.096179	 0.016850
						CHANNELS 3 Zrotation Xrotation Yrotation
						End Site
						{
							OFFSET	-0.000000	 0.096179	 0.016850
						}
					}
				}
				JOINT RightShoulder
				{
					OFFSET	-0.045700	 0.109462	-0.026280
					CHANNELS 3 Zrotation Xrotation Yrotation
					JOINT RightUpperArm
					{
						OFFSET	-0.105929	-0.005248	-0.022321
						CHANNELS 3 Zrotation Xrotation Yrotation
						JOINT RightLowerArm
						{
							OFFSET	-0.278415	-0.000000	 0.000000
							CHANNELS 3 Zrotation Xrotation Yrotation
							JOINT RightHand
							{
								OFFSET	-0.283288	 0.000000	 0.000001
								CHANNELS 3 Zrotation Xrotation Yrotation
								JOINT RightIndexProximal
								{
									OFFSET	-0.091083	-0.005168	 0.022601
									CHANNELS 3 Zrotation Xrotation Yrotation
									JOINT RightIndexIntermediate
									{
										OFFSET	-0.036764	 0.000000	 0.000000
										CHANNELS 3 Zrotation Xrotation Yrotation
										JOINT RightIndexDistal
										{
											OFFSET	-0.028831	-0.000000	 0.000000
											CHANNELS 3 Zrotation Xrotation Yrotation
											End Site
											{
												OFFSET	-0.028831	-0.000000	 0.000000
											}
										}
									}
								}
								JOINT RightMiddleProximal
								{
									OFFSET	-0.095325	-0.000000	 0.000000
									CHANNELS 3 Zrotation Xrotation Yrotation
									JOINT RightMiddleIntermediate
									{
										OFFSET	-0.036982	 0.000000	-0.000000
										CHANNELS 3 Zrotation Xrotation Yrotation
										JOINT RightMiddleDistal
										{
											OFFSET	-0.029509	 0.000000	 0.000000
											CHANNELS 3 Zrotation Xrotation Yrotation
											End Site
											{
												OFFSET	-0.029509	 0.000000	 0.000000
											}
										}
									}
								}
								JOINT RightLittleProximal
								{
									OFFSET	-0.080767	-0.004885	-0.038060
									CHANNELS 3 Zrotation Xrotation Yrotation
									JOINT RightLittleIntermediate
									{
										OFFSET	-0.036000	 0.000000	 0.000001
										CHANNELS 3 Zrotation Xrotation Yrotation
										JOINT RightLittleDistal
										{
											OFFSET	-0.021142	 0.000000	 0.000000
											CHANNELS 3 Zrotation Xrotation Yrotation
											End Site
											{
												OFFSET	-0.021142	 0.000000	 0.000000
											}
										}
									}
								}
								JOINT RightRingProximal
								{
									OFFSET	-0.091036	-0.000439	-0.018651
									CHANNELS 3 Zrotation Xrotation Yrotation
									JOINT RightRingIntermediate
									{
										OFFSET	-0.031540	 0.000000	 0.000000
										CHANNELS 3 Zrotation Xrotation Yrotation
										JOINT RightRingDistal
										{
											OFFSET	-0.029377	-0.000000	-0.000000
											CHANNELS 3 Zrotation Xrotation Yrotation
											End Site
											{
												OFFSET	-0.029377	-0.000000	-0.000000
											}
										}
									}
								}
								JOINT RightThumbProximal
								{
									OFFSET	-0.024648	-0.015727	 0.026826
									CHANNELS 3 Zrotation Xrotation Yrotation
									JOINT RightThumbIntermediate
									{
										OFFSET	-0.032298	-0.018647	 0.018647
										CHANNELS 3 Zrotation Xrotation Yrotation
										JOINT RightThumbDistal
										{
											OFFSET	-0.026526	-0.015314	 0.015314
											CHANNELS 3 Zrotation Xrotation Yrotation
											End Site
											{
												OFFSET	-0.026526	-0.015314	 0.015314
											}
										}
									}
								}
							}
						}
					}
				}
			}
		}
	}
}
MOTION
Frames:    7
Frame Time: 0.01666667
-0.058975	 1.177432	-0.449209	-3.405066	-8.128263	-15.925320	 12.026160	-6.293415	 45.440420	 0.061764	-2.233690	 11.245890	-11.908560	 2.195240	-15.455130	 0.000000	-9.862837	 0.000000	 6.734783	 2.944985	-5.661583	-3.132040	 10.729540	-25.434810	-0.998318	-5.801037	 18.166600	 0.000000	-0.601863	 0.000000	 2.963814	 25.834510	 0.805184	 3.820611	-7.423281	-3.457789	-0.004515	 0.001899	 0.003331	-22.135220	-4.259666	-9.315975	-61.788320	-4.682670	-16.446210	-0.137772	 15.250830	 3.887766	 11.002140	 6.118804	 7.317334	-6.757789	 0.608064	 0.319560	-14.893620	 0.001166	-0.006707	-16.373050	 0.001337	-0.007339	-14.653140	 0.816327	 1.499356	-21.299880	 0.001680	-0.009380	-24.217470	 0.002206	-0.010596	-19.712710	-0.667653	 7.044350	-19.551460	 0.001516	-0.008653	-22.875320	 0.002045	-0.010049	-20.859080	-0.236762	 5.097687	-19.296990	 0.001487	-0.008552	-23.145130	 0.002115	-0.010162	-3.644620	 1.760620	 7.229498	 2.452246	 3.152424	 14.238760	 1.225101	 0.621083	 8.696037	 0.946705	 4.503240	-0.096331	-7.103905	-15.585850	 19.464340	 10.276200	-2.286412	 4.788568	 53.802740	 26.318490	 24.738300	 1.571968	 6.074425	 32.696560	-8.546182	-3.448199	 0.178512	 7.201443	 0.697381	-0.562152	 14.890090	 0.000591	 0.006793	 15.975150	 0.000747	 0.007280	 5.894889	-0.753572	 4.027252	 11.938920	 0.000578	 0.005515	 14.123320	 0.000815	 0.004478	 15.973890	-1.157470	-0.488802	 15.636920	 0.001268	 0.008688	 18.968310	 0.001315	 0.008645	 11.939350	-0.595904	 0.699948	 10.487300	 0.000779	 0.004933	 14.012700	 0.001093	 0.006510	 1.528464	-4.308487	 0.267160	-2.664736	 3.666952	-15.330520	-1.441035	 1.022230	-9.596926
-0.059846	 1.177539	-0.454438	-3.034105	-8.824066	-15.389880	 13.667830	-7.537687	 44.538980	 0.376621	 5.359217	 11.041190	-12.566600	 0.377674	-16.109400	 0.000000	-9.862837	 0.000000	 6.361383	 3.091702	-6.195884	-3.097715	 10.989310	-25.151400	-1.126940	-5.894038	 17.784860	 0.000000	-0.618579	 0.000000	 2.975699	 26.684400	 0.823266	 3.440013	-7.905819	-2.325633	-0.003198	 0.001895	 0.008461	-21.582650	-4.224678	-9.068364	-59.983850	-3.463062	-15.882250	-1.515955	 15.352150	 4.098258	 10.077570	 5.088416	 3.443616	-6.631103	 0.598981	 0.321166	-14.767540	 0.001154	-0.006653	-16.252020	 0.001323	-0.007287	-14.556270	 0.812809	 1.492372	-21.197090	 0.001663	-0.009337	-24.163140	 0.002196	-0.010573	-19.571840	-0.649005	 7.038532	-19.411720	 0.001495	-0.008594	-22.746130	 0.002022	-0.009996	-20.722950	-0.226402	 5.090230	-19.169230	 0.001468	-0.008498	-23.000430	 0.002090	-0.010102	-3.612417	 1.766819	 7.296182	 2.464710	 3.181683	 14.301150	 1.240694	 0.649704	 8.760519	 0.964946	 4.603062	-0.090441	-7.748448	-15.283890	 16.672200	 11.217700	-2.465058	 5.117581	 54.250230	 22.946360	 24.987300	 2.270736	 5.502595	 21.539670	-10.765860	-4.080583	 7.127536	 7.181727	 0.700662	-0.582421	 14.881360	 0.000590	 0.006789	 15.966600	 0.000746	 0.007277	 5.885358	-0.717074	 3.875720	 11.944220	 0.000578	 0.005518	 14.139970	 0.000816	 0.004485	 15.820480	-1.119440	-0.656744	 15.514140	 0.001249	 0.008634	 18.838190	 0.001294	 0.008588	 11.940060	-0.562929	 0.525592	 10.507110	 0.000781	 0.004942	 14.012710	 0.001093	 0.006510	 1.609365	-4.296182	 0.380798	-2.654991	 3.642887	-15.279650	-1.424162	 0.990160	-9.525351
-0.059846	 1.177539	-0.454438	-3.034105	-8.824066	-15.389880	 13.667830	-7.537687	 44.538980	 0.376621	 5.359217	 11.041190	-12.566600	 0.377674	-16.109400	 0.000000	-9.862837	 0.000000	 6.361383	 3.091702	-6.195884	-3.097715	 10.989310	-25.151400	-1.126940	-5.894038	 17.784860	 0.000000	-0.618579	 0.000000	 2.975699	 26.684400	 0.823266	 3.440013	-7.905819	-2.325633	-0.003198	 0.001895	 0.008461	-21.582650	-4.224678	-9.068364	-59.983850	-3.463062	-15.882250	-1.515955	 15.352150	 4.098258	 10.077570	 5.088416	 3.443616	-6.631103	 0.598981	 0.321166	-14.767540	 0.001154	-0.006653	-16.252020	 0.001323	-0.007287	-14.556270	 0.812809	 1.492372	-21.197090	 0.001663	-0.009337	-24.163140	 0.002196	-0.010573	-19.571840	-0.649005	 7.038532	-19.411720	 0.001495	-0.008594	-22.746130	 0.002022	-0.009996	-20.722950	-0.226402	 5.090230	-19.169230	 0.001468	-0.008498	-23.000430	 0.002090	-0.010102	-3.612417	 1.766819	 7.296182	 2.464710	 3.181683	 14.301150	 1.240694	 0.649704	 8.760519	 0.964946	 4.603062	-0.090441	-7.748448	-15.283890	 16.672200	 11.217700	-2.465058	 5.117581	 54.250230	 22.946360	 24.987300	 2.270736	 5.502595	 21.539670	-10.765860	-4.080583	 7.127536	 7.181727	 0.700662	-0.582421	 14.881360	 0.000590	 0.006789	 15.966600	 0.000746	 0.007277	 5.885358	-0.717074	 3.875720	 11.944220	 0.000578	 0.005518	 14.139970	 0.000816	 0.004485	 15.820480	-1.119440	-0.656744	 15.514140	 0.001249	 0.008634	 18.838190	 0.001294	 0.008588	 11.940060	-0.562929	 0.525592	 10.507110	 0.000781	 0.004942	 14.012710	 0.001093	 0.006510	 1.609365	-4.296182	 0.380798	-2.654991	 3.642887	-15.279650	-1.424162	 0.990160	-9.525351
-0.060640	 1.178377	-0.457813	-2.584335	-9.250577	-14.452550	 14.878380	-8.726178	 42.128400	 0.786575	 12.960750	 10.466710	-12.916570	-1.487133	-16.265890	 0.000000	-9.862837	 0.000000	 5.967360	 3.243537	-7.028690	-3.085310	 10.898740	-25.004260	-1.141229	-5.783424	 17.690760	 0.000000	-0.616717	 0.000000	 3.310810	 27.119320	 0.679547	 3.004646	-8.224607	-1.316579	-0.001574	 0.001896	-0.002277	-21.037190	-4.230876	-8.518522	-58.923810	-2.784191	-15.384570	-2.377617	 16.351180	 3.577362	 12.095870	 3.674259	-0.551576	-6.493528	 0.588785	 0.321522	-14.674520	 0.001144	-0.006613	-16.135190	 0.001310	-0.007237	-14.442720	 0.809881	 1.491463	-21.159420	 0.001657	-0.009321	-24.031060	 0.002171	-0.010519	-19.465920	-0.634315	 7.039637	-19.264220	 0.001474	-0.008531	-22.634320	 0.002003	-0.009949	-20.579350	-0.214454	 5.091545	-18.995590	 0.001443	-0.008424	-22.905020	 0.002074	-0.010063	-3.586243	 1.764936	 7.336494	 2.469527	 3.193016	 14.325300	 1.249538	 0.665965	 8.797149	 0.925519	 4.670126	-0.078527	-8.243004	-15.275920	 13.748040	 11.751790	-2.589153	 5.164045	 55.152690	 19.122220	 25.081900	 1.428041	 10.681510	 12.633160	-22.778880	-3.528626	 8.537659	 7.181727	 0.700662	-0.582421	 14.864630	 0.000587	 0.006782	 15.966600	 0.000746	 0.007277	 5.889205	-0.678471	 3.719707	 11.961260	 0.000580	 0.005526	 14.139970	 0.000816	 0.004485	 15.727380	-1.086253	-0.822462	 15.417270	 0.001234	 0.008591	 18.745720	 0.001280	 0.008547	 11.955340	-0.547234	 0.439936	 10.507110	 0.000781	 0.004942	 14.032700	 0.001095	 0.006519	 1.657773	-4.251363	 0.386845	-2.649148	 3.628485	-15.249200	-1.424162	 0.990160	-9.525351
-0.060640	 1.178377	-0.457813	-2.584335	-9.250577	-14.452550	 14.878380	-8.726178	 42.128400	 0.786575	 12.960750	 10.466710	-12.916570	-1.487133	-16.265890	 0.000000	-9.862837	 0.000000	 5.967360	 3.243537	-7.028690	-3.085310	 10.898740	-25.004260	-1.141229	-5.783424	 17.690760	 0.000000	-0.616717	 0.000000	 3.310810	 27.119320	 0.679547	 3.004646	-8.224607	-1.316579	-0.001574	 0.001896	-0.002277	-21.037190	-4.230876	-8.518522	-58.923810	-2.784191	-15.384570	-2.377617	 16.351180	 3.577362	 12.095870	 3.674259	-0.551576	-6.493528	 0.588785	 0.321522	-14.674520	 0.001144	-0.006613	-16.135190	 0.001310	-0.007237	-14.442720	 0.809881	 1.491463	-21.159420	 0.001657	-0.009321	-24.031060	 0.002171	-0.010519	-19.465920	-0.634315	 7.039637	-19.264220	 0.001474	-0.008531	-22.634320	 0.002003	-0.009949	-20.579350	-0.214454	 5.091545	-18.995590	 0.001443	-0.008424	-22.905020	 0.002074	-0.010063	-3.586243	 1.764936	 7.336494	 2.469527	 3.193016	 14.325300	 1.249538	 0.665965	 8.797149	 0.925519	 4.670126	-0.078527	-8.243004	-15.275920	 13.748040	 11.751790	-2.589153	 5.164045	 55.152690	 19.122220	 25.081900	 1.428041	 10.681510	 12.633160	-22.778880	-3.528626	 8.537659	 7.181727	 0.700662	-0.582421	 14.864630	 0.000587	 0.006782	 15.966600	 0.000746	 0.007277	 5.889205	-0.678471	 3.719707	 11.961260	 0.000580	 0.005526	 14.139970	 0.000816	 0.004485	 15.727380	-1.086253	-0.822462	 15.417270	 0.001234	 0.008591	 18.745720	 0.001280	 0.008547	 11.955340	-0.547234	 0.439936	 10.507110	 0.000781	 0.004942	 14.032700	 0.001095	 0.006519	 1.657773	-4.251363	 0.386845	-2.649148	 3.628485	-15.249200	-1.424162	 0.990160	-9.525351
-0.060640	 1.178377	-0.457813	-2.584335	-9.250577	-14.452550	 14.878380	-8.726178	 42.128400	 0.786575	 12.960750	 10.466710	-12.916570	-1.487133	-16.265890	 0.000000	-9.862837	 0.000000	 5.967360	 3.243537	-7.028690	-3.085310	 10.898740	-25.004260	-1.141229	-5.783424	 17.690760	 0.000000	-0.616717	 0.000000	 3.310810	 27.119320	 0.679547	 3.004646	-8.224607	-1.316579	-0.001574	 0.001896	-0.002277	-21.037190	-4.230876	-8.518522	-58.923810	-2.784191	-15.384570	-2.377617	 16.351180	 3.577362	 12.095870	 3.674259	-0.551576	-6.493528	 0.588785	 0.321522	-14.674520	 0.001144	-0.006613	-16.135190	 0.001310	-0.007237	-14.442720	 0.809881	 1.491463	-21.159420	 0.001657	-0.009321	-24.031060	 0.002171	-0.010519	-19.465920	-0.634315	 7.039637	-19.264220	 0.001474	-0.008531	-22.634320	 0.002003	-0.009949	-20.579350	-0.214454	 5.091545	-18.995590	 0.001443	-0.008424	-22.905020	 0.002074	-0.010063	-3.586243	 1.764936	 7.336494	 2.469527	 3.193016	 14.325300	 1.249538	 0.665965	 8.797149	 0.925519	 4.670126	-0.078527	-8.243004	-15.275920	 13.748040	 11.751790	-2.589153	 5.164045	 55.152690	 19.122220	 25.081900	 1.428041	 10.681510	 12.633160	-22.778880	-3.528626	 8.537659	 7.181727	 0.700662	-0.582421	 14.864630	 0.000587	 0.006782	 15.966600	 0.000746	 0.007277	 5.889205	-0.678471	 3.719707	 11.961260	 0.000580	 0.005526	 14.139970	 0.000816	 0.004485	 15.727380	-1.086253	-0.822462	 15.417270	 0.001234	 0.008591	 18.745720	 0.001280	 0.008547	 11.955340	-0.547234	 0.439936	 10.507110	 0.000781	 0.004942	 14.032700	 0.001095	 0.006519	 1.657773	-4.251363	 0.386845	-2.649148	 3.628485	-15.249200	-1.424162	 0.990160	-9.525351
-0.061617	 1.178377	-0.461729	-2.257470	-9.817310	-13.451470	 15.300430	-8.879205	 39.789250	 1.119811	 18.878440	 9.955743	-12.596730	-2.655547	-15.759880	 0.000000	-9.862837	 0.000000	 5.629523	 3.174224	-7.974466	-3.049555	 11.609130	-24.372810	-1.142091	-6.025888	 17.045790	 0.000000	-0.601863	 0.000000	 3.817680	 27.748860	 0.410255	 2.441705	-8.496222	-0.672724	-0.002736	 0.001897	 0.005425	-20.347690	-4.233974	-7.774373	-60.184560	-3.903775	-15.639230	-2.372420	 20.407860	 3.556129	 20.985780	 2.762584	-2.218153	-6.352133	 0.578356	 0.322120	-14.540790	 0.001131	-0.006555	-16.010540	 0.001296	-0.007184	-14.278900	 0.805505	 1.489277	-21.048640	 0.001638	-0.009274	-23.901400	 0.002146	-0.010465	-19.327590	-0.617063	 7.025441	-19.129020	 0.001454	-0.008474	-22.489500	 0.001978	-0.009889	-20.472370	-0.205892	 5.089513	-18.859700	 0.001423	-0.008366	-22.761050	 0.002049	-0.010003	-3.562033	 1.755820	 7.358994	 2.478818	 3.214912	 14.371950	 1.261612	 0.688214	 8.847214	 0.796554	 4.764606	-0.053918	-8.905847	-15.414250	 11.207430	 11.308890	-2.529299	 4.885661	 55.962500	 14.510040	 23.744480	 1.690087	 9.967583	 11.511630	-23.008650	-4.143391	 5.394966	 7.172427	 0.706991	-0.612550	 14.864630	 0.000587	 0.006782	 15.950450	 0.000744	 0.007269	 5.907790	-0.634894	 3.547677	 11.974910	 0.000581	 0.005532	 14.157620	 0.000818	 0.004493	 15.601110	-1.052777	-0.970346	 15.273740	 0.001211	 0.008527	 18.618340	 0.001260	 0.008491	 11.965690	-0.508768	 0.234618	 10.534320	 0.000783	 0.004954	 14.060690	 0.001098	 0.006531	 1.782075	-4.269301	 0.623335	-2.640458	 3.607112	-15.203990	-1.408226	 0.959963	-9.457884
